<mxfile host="app.diagrams.net" modified="2024-02-13T15:01:46.148Z" agent="Mozilla/5.0 (Windows NT 10.0; Win64; x64; rv:122.0) Gecko/20100101 Firefox/122.0" etag="hZRX4HifAqrgX9ubk2jS" version="23.1.4" type="device">
  <diagram name="Page-1" id="ZJscTw_SenKMyLkWDp4w">
    <mxGraphModel dx="839" dy="578" grid="1" gridSize="10" guides="1" tooltips="1" connect="1" arrows="1" fold="1" page="1" pageScale="1" pageWidth="827" pageHeight="1169" math="0" shadow="0">
      <root>
        <mxCell id="0" />
        <mxCell id="1" parent="0" />
        <mxCell id="5sABorG03hDOq8MKLAas-1" value="12-bit &lt;br&gt;Counter" style="rounded=0;whiteSpace=wrap;html=1;fontFamily=Courier New;" vertex="1" parent="1">
          <mxGeometry x="240" y="480" width="200" height="80" as="geometry" />
        </mxCell>
        <mxCell id="5sABorG03hDOq8MKLAas-2" value="BIST&lt;br&gt;Controller" style="rounded=0;whiteSpace=wrap;html=1;fontFamily=Courier New;" vertex="1" parent="1">
          <mxGeometry x="260" y="200" width="120" height="80" as="geometry" />
        </mxCell>
        <mxCell id="5sABorG03hDOq8MKLAas-3" value="SRAM" style="rounded=0;whiteSpace=wrap;html=1;fontFamily=Courier New;" vertex="1" parent="1">
          <mxGeometry x="680" y="280" width="120" height="310" as="geometry" />
        </mxCell>
        <mxCell id="5sABorG03hDOq8MKLAas-4" value="Comparator" style="rounded=0;whiteSpace=wrap;html=1;fontFamily=Courier New;" vertex="1" parent="1">
          <mxGeometry x="320" y="640" width="120" height="60" as="geometry" />
        </mxCell>
        <mxCell id="5sABorG03hDOq8MKLAas-5" value="4:32&lt;br&gt;Decoder" style="rounded=0;whiteSpace=wrap;html=1;fontFamily=Courier New;" vertex="1" parent="1">
          <mxGeometry x="120" y="340" width="80" height="120" as="geometry" />
        </mxCell>
        <mxCell id="5sABorG03hDOq8MKLAas-7" value="MUX" style="shape=trapezoid;perimeter=trapezoidPerimeter;whiteSpace=wrap;html=1;fixedSize=1;rotation=-180;fontFamily=Courier New;" vertex="1" parent="1">
          <mxGeometry x="680" y="200" width="120" height="40" as="geometry" />
        </mxCell>
        <mxCell id="5sABorG03hDOq8MKLAas-8" value="MUX" style="shape=trapezoid;perimeter=trapezoidPerimeter;whiteSpace=wrap;html=1;fixedSize=1;rotation=90;fontFamily=Courier New;" vertex="1" parent="1">
          <mxGeometry x="480" y="520" width="120" height="40" as="geometry" />
        </mxCell>
        <mxCell id="5sABorG03hDOq8MKLAas-9" value="MUX" style="shape=trapezoid;perimeter=trapezoidPerimeter;whiteSpace=wrap;html=1;fixedSize=1;rotation=90;fontFamily=Courier New;" vertex="1" parent="1">
          <mxGeometry x="480" y="320" width="120" height="40" as="geometry" />
        </mxCell>
        <mxCell id="5sABorG03hDOq8MKLAas-11" value="" style="endArrow=none;html=1;rounded=0;entryX=0;entryY=0.194;entryDx=0;entryDy=0;entryPerimeter=0;fontFamily=Courier New;" edge="1" parent="1" target="5sABorG03hDOq8MKLAas-3">
          <mxGeometry width="50" height="50" relative="1" as="geometry">
            <mxPoint x="560" y="340" as="sourcePoint" />
            <mxPoint x="610" y="290" as="targetPoint" />
          </mxGeometry>
        </mxCell>
        <mxCell id="5sABorG03hDOq8MKLAas-12" value="" style="endArrow=none;html=1;rounded=0;entryX=0;entryY=0.194;entryDx=0;entryDy=0;entryPerimeter=0;fontFamily=Courier New;" edge="1" parent="1">
          <mxGeometry width="50" height="50" relative="1" as="geometry">
            <mxPoint x="560" y="539.86" as="sourcePoint" />
            <mxPoint x="600" y="539.86" as="targetPoint" />
          </mxGeometry>
        </mxCell>
        <mxCell id="5sABorG03hDOq8MKLAas-13" value="R/W" style="text;html=1;align=center;verticalAlign=middle;whiteSpace=wrap;rounded=0;fontFamily=Courier New;" vertex="1" parent="1">
          <mxGeometry x="680" y="484" width="30" height="30" as="geometry" />
        </mxCell>
        <mxCell id="5sABorG03hDOq8MKLAas-14" value="addr" style="text;html=1;align=center;verticalAlign=middle;whiteSpace=wrap;rounded=0;fontFamily=Courier New;" vertex="1" parent="1">
          <mxGeometry x="684" y="325" width="30" height="25" as="geometry" />
        </mxCell>
        <mxCell id="5sABorG03hDOq8MKLAas-15" value="Data_in" style="text;html=1;align=center;verticalAlign=middle;whiteSpace=wrap;rounded=0;fontFamily=Courier New;" vertex="1" parent="1">
          <mxGeometry x="710" y="280" width="60" height="20" as="geometry" />
        </mxCell>
        <mxCell id="5sABorG03hDOq8MKLAas-18" value="" style="endArrow=none;html=1;rounded=0;exitX=0.5;exitY=0;exitDx=0;exitDy=0;fontFamily=Courier New;entryX=0.5;entryY=0;entryDx=0;entryDy=0;" edge="1" parent="1" source="5sABorG03hDOq8MKLAas-15" target="5sABorG03hDOq8MKLAas-7">
          <mxGeometry width="50" height="50" relative="1" as="geometry">
            <mxPoint x="610" y="290" as="sourcePoint" />
            <mxPoint x="740" y="250" as="targetPoint" />
          </mxGeometry>
        </mxCell>
        <mxCell id="5sABorG03hDOq8MKLAas-19" value="Data_out" style="text;html=1;align=center;verticalAlign=middle;whiteSpace=wrap;rounded=0;fontFamily=Courier New;" vertex="1" parent="1">
          <mxGeometry x="710" y="570" width="60" height="20" as="geometry" />
        </mxCell>
        <mxCell id="5sABorG03hDOq8MKLAas-23" value="Q[11:8]" style="text;html=1;align=center;verticalAlign=middle;whiteSpace=wrap;rounded=0;fontFamily=Courier New;" vertex="1" parent="1">
          <mxGeometry x="220" y="400" width="60" height="30" as="geometry" />
        </mxCell>
        <mxCell id="5sABorG03hDOq8MKLAas-25" value="Q[5:1]" style="text;html=1;align=center;verticalAlign=middle;whiteSpace=wrap;rounded=0;fontFamily=Courier New;" vertex="1" parent="1">
          <mxGeometry x="404" y="360" width="40" height="20" as="geometry" />
        </mxCell>
        <mxCell id="5sABorG03hDOq8MKLAas-26" value="" style="endArrow=classic;html=1;rounded=0;fontFamily=Courier New;" edge="1" parent="1">
          <mxGeometry width="50" height="50" relative="1" as="geometry">
            <mxPoint x="200" y="500" as="sourcePoint" />
            <mxPoint x="240" y="500" as="targetPoint" />
          </mxGeometry>
        </mxCell>
        <mxCell id="5sABorG03hDOq8MKLAas-28" value="" style="endArrow=classic;html=1;rounded=0;fontFamily=Courier New;" edge="1" parent="1">
          <mxGeometry width="50" height="50" relative="1" as="geometry">
            <mxPoint x="200" y="540" as="sourcePoint" />
            <mxPoint x="240" y="539.89" as="targetPoint" />
          </mxGeometry>
        </mxCell>
        <mxCell id="5sABorG03hDOq8MKLAas-29" value="" style="triangle;whiteSpace=wrap;html=1;rotation=-90;fontFamily=Courier New;" vertex="1" parent="1">
          <mxGeometry x="270" y="550" width="10" height="10" as="geometry" />
        </mxCell>
        <mxCell id="5sABorG03hDOq8MKLAas-31" value="" style="endArrow=none;html=1;rounded=0;fontFamily=Courier New;" edge="1" parent="1">
          <mxGeometry width="50" height="50" relative="1" as="geometry">
            <mxPoint x="275" y="570" as="sourcePoint" />
            <mxPoint x="275" y="560" as="targetPoint" />
          </mxGeometry>
        </mxCell>
        <mxCell id="5sABorG03hDOq8MKLAas-34" value="" style="triangle;whiteSpace=wrap;html=1;rotation=-90;fontFamily=Courier New;" vertex="1" parent="1">
          <mxGeometry x="280" y="270" width="10" height="10" as="geometry" />
        </mxCell>
        <mxCell id="5sABorG03hDOq8MKLAas-35" value="" style="endArrow=none;html=1;rounded=0;fontFamily=Courier New;" edge="1" parent="1">
          <mxGeometry width="50" height="50" relative="1" as="geometry">
            <mxPoint x="285" y="290" as="sourcePoint" />
            <mxPoint x="285" y="280" as="targetPoint" />
          </mxGeometry>
        </mxCell>
        <mxCell id="5sABorG03hDOq8MKLAas-37" value="Q[0]" style="text;html=1;align=center;verticalAlign=middle;whiteSpace=wrap;rounded=0;fontFamily=Courier New;" vertex="1" parent="1">
          <mxGeometry x="460" y="500" width="30" height="20" as="geometry" />
        </mxCell>
        <mxCell id="5sABorG03hDOq8MKLAas-38" value="" style="verticalLabelPosition=bottom;shadow=0;dashed=0;align=center;html=1;verticalAlign=top;shape=mxgraph.electrical.logic_gates.logic_gate;operation=xor;negating=1;negSize=0.15;fontFamily=Courier New;" vertex="1" parent="1">
          <mxGeometry x="460" y="600" width="60" height="40" as="geometry" />
        </mxCell>
        <mxCell id="5sABorG03hDOq8MKLAas-39" value="" style="endArrow=none;html=1;rounded=0;entryX=1;entryY=0.5;entryDx=0;entryDy=0;fontFamily=Courier New;" edge="1" parent="1" target="5sABorG03hDOq8MKLAas-8">
          <mxGeometry width="50" height="50" relative="1" as="geometry">
            <mxPoint x="520" y="620" as="sourcePoint" />
            <mxPoint x="550" y="620" as="targetPoint" />
            <Array as="points">
              <mxPoint x="540" y="620" />
            </Array>
          </mxGeometry>
        </mxCell>
        <mxCell id="5sABorG03hDOq8MKLAas-40" value="" style="endArrow=none;html=1;rounded=0;exitX=0;exitY=0.25;exitDx=0;exitDy=0;exitPerimeter=0;fontFamily=Courier New;" edge="1" parent="1" source="5sABorG03hDOq8MKLAas-38">
          <mxGeometry width="50" height="50" relative="1" as="geometry">
            <mxPoint x="330" y="610" as="sourcePoint" />
            <mxPoint x="380" y="560" as="targetPoint" />
            <Array as="points">
              <mxPoint x="380" y="610" />
            </Array>
          </mxGeometry>
        </mxCell>
        <mxCell id="5sABorG03hDOq8MKLAas-41" value="" style="endArrow=none;html=1;rounded=0;exitX=0;exitY=0.75;exitDx=0;exitDy=0;exitPerimeter=0;fontFamily=Courier New;" edge="1" parent="1" source="5sABorG03hDOq8MKLAas-38">
          <mxGeometry width="50" height="50" relative="1" as="geometry">
            <mxPoint x="300" y="610" as="sourcePoint" />
            <mxPoint x="350" y="560" as="targetPoint" />
            <Array as="points">
              <mxPoint x="350" y="630" />
            </Array>
          </mxGeometry>
        </mxCell>
        <mxCell id="5sABorG03hDOq8MKLAas-42" value="Q[6]" style="text;html=1;align=center;verticalAlign=middle;whiteSpace=wrap;rounded=0;fontFamily=Courier New;" vertex="1" parent="1">
          <mxGeometry x="358" y="616" width="20" height="10" as="geometry" />
        </mxCell>
        <mxCell id="5sABorG03hDOq8MKLAas-43" value="Q[7]" style="text;html=1;align=center;verticalAlign=middle;whiteSpace=wrap;rounded=0;fontFamily=Courier New;" vertex="1" parent="1">
          <mxGeometry x="389" y="596" width="20" height="10" as="geometry" />
        </mxCell>
        <mxCell id="5sABorG03hDOq8MKLAas-46" value="Q[7]" style="text;html=1;align=center;verticalAlign=middle;whiteSpace=wrap;rounded=0;fontFamily=Courier New;" vertex="1" parent="1">
          <mxGeometry x="474" y="546" width="20" height="10" as="geometry" />
        </mxCell>
        <mxCell id="5sABorG03hDOq8MKLAas-47" value="EN" style="text;html=1;align=center;verticalAlign=middle;whiteSpace=wrap;rounded=0;fontFamily=Courier New;" vertex="1" parent="1">
          <mxGeometry x="170" y="494" width="29" height="10" as="geometry" />
        </mxCell>
        <mxCell id="5sABorG03hDOq8MKLAas-48" value="Reset" style="text;html=1;align=center;verticalAlign=middle;whiteSpace=wrap;rounded=0;fontFamily=Courier New;" vertex="1" parent="1">
          <mxGeometry x="159" y="535" width="40" height="10" as="geometry" />
        </mxCell>
        <mxCell id="5sABorG03hDOq8MKLAas-50" value="Cout" style="text;html=1;align=center;verticalAlign=middle;whiteSpace=wrap;rounded=0;fontFamily=Courier New;" vertex="1" parent="1">
          <mxGeometry x="310" y="266" width="30" height="10" as="geometry" />
        </mxCell>
        <mxCell id="5sABorG03hDOq8MKLAas-51" value="" style="endArrow=classic;html=1;rounded=0;entryX=1;entryY=0.5;entryDx=0;entryDy=0;fontFamily=Courier New;" edge="1" parent="1" target="5sABorG03hDOq8MKLAas-5">
          <mxGeometry width="50" height="50" relative="1" as="geometry">
            <mxPoint x="280" y="480" as="sourcePoint" />
            <mxPoint x="330" y="430" as="targetPoint" />
            <Array as="points">
              <mxPoint x="280" y="400" />
            </Array>
          </mxGeometry>
        </mxCell>
        <mxCell id="5sABorG03hDOq8MKLAas-52" value="" style="endArrow=classic;html=1;rounded=0;entryX=0.55;entryY=1;entryDx=0;entryDy=0;entryPerimeter=0;fontFamily=Courier New;" edge="1" parent="1" target="5sABorG03hDOq8MKLAas-2">
          <mxGeometry width="50" height="50" relative="1" as="geometry">
            <mxPoint x="326" y="480" as="sourcePoint" />
            <mxPoint x="326" y="250" as="targetPoint" />
          </mxGeometry>
        </mxCell>
        <mxCell id="5sABorG03hDOq8MKLAas-53" value="" style="endArrow=classic;html=1;rounded=0;entryX=0.667;entryY=1;entryDx=0;entryDy=0;entryPerimeter=0;fontFamily=Courier New;" edge="1" parent="1" target="5sABorG03hDOq8MKLAas-9">
          <mxGeometry width="50" height="50" relative="1" as="geometry">
            <mxPoint x="400" y="480" as="sourcePoint" />
            <mxPoint x="510" y="370" as="targetPoint" />
            <Array as="points">
              <mxPoint x="400" y="360" />
            </Array>
          </mxGeometry>
        </mxCell>
        <mxCell id="5sABorG03hDOq8MKLAas-56" value="" style="endArrow=classic;html=1;rounded=0;entryX=0.333;entryY=1;entryDx=0;entryDy=0;entryPerimeter=0;fontFamily=Courier New;" edge="1" parent="1" target="5sABorG03hDOq8MKLAas-8">
          <mxGeometry width="50" height="50" relative="1" as="geometry">
            <mxPoint x="440" y="520" as="sourcePoint" />
            <mxPoint x="490" y="470" as="targetPoint" />
          </mxGeometry>
        </mxCell>
        <mxCell id="5sABorG03hDOq8MKLAas-57" value="" style="endArrow=classic;html=1;rounded=0;entryX=0.667;entryY=1;entryDx=0;entryDy=0;entryPerimeter=0;fontFamily=Courier New;" edge="1" parent="1" target="5sABorG03hDOq8MKLAas-8">
          <mxGeometry width="50" height="50" relative="1" as="geometry">
            <mxPoint x="380" y="580" as="sourcePoint" />
            <mxPoint x="430" y="530" as="targetPoint" />
            <Array as="points">
              <mxPoint x="450" y="580" />
              <mxPoint x="450" y="560" />
            </Array>
          </mxGeometry>
        </mxCell>
        <mxCell id="5sABorG03hDOq8MKLAas-58" value="" style="endArrow=classic;html=1;rounded=0;exitX=0.5;exitY=1;exitDx=0;exitDy=0;fontFamily=Courier New;" edge="1" parent="1" source="5sABorG03hDOq8MKLAas-4" target="5sABorG03hDOq8MKLAas-59">
          <mxGeometry width="50" height="50" relative="1" as="geometry">
            <mxPoint x="414" y="770" as="sourcePoint" />
            <mxPoint x="380" y="740" as="targetPoint" />
          </mxGeometry>
        </mxCell>
        <mxCell id="5sABorG03hDOq8MKLAas-59" value="Equal" style="text;html=1;align=center;verticalAlign=middle;whiteSpace=wrap;rounded=0;fontFamily=Courier New;" vertex="1" parent="1">
          <mxGeometry x="350" y="741" width="60" height="10" as="geometry" />
        </mxCell>
        <mxCell id="5sABorG03hDOq8MKLAas-60" value="" style="endArrow=classic;html=1;rounded=0;entryX=1;entryY=0.5;entryDx=0;entryDy=0;exitX=0.5;exitY=1;exitDx=0;exitDy=0;fontFamily=Courier New;" edge="1" parent="1" source="5sABorG03hDOq8MKLAas-19" target="5sABorG03hDOq8MKLAas-4">
          <mxGeometry width="50" height="50" relative="1" as="geometry">
            <mxPoint x="660" y="600" as="sourcePoint" />
            <mxPoint x="450" y="670" as="targetPoint" />
            <Array as="points">
              <mxPoint x="740" y="670" />
              <mxPoint x="660" y="670" />
            </Array>
          </mxGeometry>
        </mxCell>
        <mxCell id="5sABorG03hDOq8MKLAas-61" value="" style="shape=flexArrow;endArrow=classic;html=1;rounded=0;entryX=0.25;entryY=1;entryDx=0;entryDy=0;fontFamily=Courier New;" edge="1" parent="1" target="5sABorG03hDOq8MKLAas-9">
          <mxGeometry width="50" height="50" relative="1" as="geometry">
            <mxPoint x="420" y="310" as="sourcePoint" />
            <mxPoint x="510" y="310" as="targetPoint" />
          </mxGeometry>
        </mxCell>
        <mxCell id="5sABorG03hDOq8MKLAas-62" value="Normal&lt;br&gt;DATA_IN" style="text;html=1;align=center;verticalAlign=middle;whiteSpace=wrap;rounded=0;fontFamily=Courier New;" vertex="1" parent="1">
          <mxGeometry x="730" y="77" width="60" height="30" as="geometry" />
        </mxCell>
        <mxCell id="5sABorG03hDOq8MKLAas-64" value="" style="shape=flexArrow;endArrow=classic;html=1;rounded=0;fontFamily=Courier New;" edge="1" parent="1">
          <mxGeometry width="50" height="50" relative="1" as="geometry">
            <mxPoint x="760" y="110" as="sourcePoint" />
            <mxPoint x="760" y="200" as="targetPoint" />
          </mxGeometry>
        </mxCell>
        <mxCell id="5sABorG03hDOq8MKLAas-65" value="Normal&lt;br&gt;ADDR_IN" style="text;html=1;align=center;verticalAlign=middle;whiteSpace=wrap;rounded=0;fontFamily=Courier New;" vertex="1" parent="1">
          <mxGeometry x="356" y="295" width="60" height="30" as="geometry" />
        </mxCell>
        <mxCell id="5sABorG03hDOq8MKLAas-66" value="MUX" style="shape=trapezoid;perimeter=trapezoidPerimeter;whiteSpace=wrap;html=1;fixedSize=1;rotation=90;fontFamily=Courier New;" vertex="1" parent="1">
          <mxGeometry x="545" y="475" width="150" height="40" as="geometry" />
        </mxCell>
        <mxCell id="5sABorG03hDOq8MKLAas-68" value="" style="shape=flexArrow;endArrow=classic;html=1;rounded=0;entryX=0.25;entryY=1;entryDx=0;entryDy=0;fontFamily=Courier New;" edge="1" parent="1">
          <mxGeometry width="50" height="50" relative="1" as="geometry">
            <mxPoint x="500" y="450" as="sourcePoint" />
            <mxPoint x="600" y="450" as="targetPoint" />
          </mxGeometry>
        </mxCell>
        <mxCell id="5sABorG03hDOq8MKLAas-69" value="Normal&lt;br&gt;RW_IN" style="text;html=1;align=center;verticalAlign=middle;whiteSpace=wrap;rounded=0;fontFamily=Courier New;" vertex="1" parent="1">
          <mxGeometry x="434" y="430" width="60" height="30" as="geometry" />
        </mxCell>
        <mxCell id="5sABorG03hDOq8MKLAas-70" value="" style="endArrow=none;html=1;rounded=0;entryX=0;entryY=0.533;entryDx=0;entryDy=0;entryPerimeter=0;fontFamily=Courier New;" edge="1" parent="1" target="5sABorG03hDOq8MKLAas-13">
          <mxGeometry width="50" height="50" relative="1" as="geometry">
            <mxPoint x="640" y="500" as="sourcePoint" />
            <mxPoint x="690" y="450" as="targetPoint" />
          </mxGeometry>
        </mxCell>
        <mxCell id="5sABorG03hDOq8MKLAas-71" value="" style="endArrow=classic;html=1;rounded=0;entryX=0;entryY=0.5;entryDx=0;entryDy=0;fontFamily=Courier New;" edge="1" parent="1" target="5sABorG03hDOq8MKLAas-4">
          <mxGeometry width="50" height="50" relative="1" as="geometry">
            <mxPoint x="120" y="400" as="sourcePoint" />
            <mxPoint x="170" y="350" as="targetPoint" />
            <Array as="points">
              <mxPoint x="80" y="400" />
              <mxPoint x="80" y="670" />
            </Array>
          </mxGeometry>
        </mxCell>
        <mxCell id="5sABorG03hDOq8MKLAas-72" value="" style="endArrow=classic;html=1;rounded=0;entryX=0.75;entryY=1;entryDx=0;entryDy=0;fontFamily=Courier New;" edge="1" parent="1" target="5sABorG03hDOq8MKLAas-7">
          <mxGeometry width="50" height="50" relative="1" as="geometry">
            <mxPoint x="80" y="400" as="sourcePoint" />
            <mxPoint x="130" y="350" as="targetPoint" />
            <Array as="points">
              <mxPoint x="80" y="80" />
              <mxPoint x="710" y="80" />
            </Array>
          </mxGeometry>
        </mxCell>
        <mxCell id="5sABorG03hDOq8MKLAas-73" value="" style="endArrow=classic;html=1;rounded=0;entryX=0;entryY=0.375;entryDx=0;entryDy=0;entryPerimeter=0;fontFamily=Courier New;" edge="1" parent="1" target="5sABorG03hDOq8MKLAas-2">
          <mxGeometry width="50" height="50" relative="1" as="geometry">
            <mxPoint x="220" y="230" as="sourcePoint" />
            <mxPoint x="249" y="180" as="targetPoint" />
          </mxGeometry>
        </mxCell>
        <mxCell id="5sABorG03hDOq8MKLAas-74" value="Start" style="text;html=1;align=center;verticalAlign=middle;whiteSpace=wrap;rounded=0;fontFamily=Courier New;" vertex="1" parent="1">
          <mxGeometry x="179" y="220" width="41" height="20" as="geometry" />
        </mxCell>
        <mxCell id="5sABorG03hDOq8MKLAas-75" value="" style="endArrow=classic;html=1;rounded=0;fontFamily=Courier New;" edge="1" parent="1" target="5sABorG03hDOq8MKLAas-76">
          <mxGeometry width="50" height="50" relative="1" as="geometry">
            <mxPoint x="380" y="220" as="sourcePoint" />
            <mxPoint x="420" y="220" as="targetPoint" />
          </mxGeometry>
        </mxCell>
        <mxCell id="5sABorG03hDOq8MKLAas-76" value="EN" style="text;html=1;align=center;verticalAlign=middle;whiteSpace=wrap;rounded=0;fontFamily=Courier New;" vertex="1" parent="1">
          <mxGeometry x="414" y="212.5" width="26" height="15" as="geometry" />
        </mxCell>
        <mxCell id="5sABorG03hDOq8MKLAas-77" value="32-bit&lt;br&gt;test_data" style="text;html=1;align=center;verticalAlign=middle;whiteSpace=wrap;rounded=0;rotation=0;fontFamily=Courier New;" vertex="1" parent="1">
          <mxGeometry x="120" y="83" width="60" height="30" as="geometry" />
        </mxCell>
        <mxCell id="5sABorG03hDOq8MKLAas-78" value="32-bit&lt;br&gt;test_data" style="text;html=1;align=center;verticalAlign=middle;whiteSpace=wrap;rounded=0;rotation=0;fontFamily=Courier New;" vertex="1" parent="1">
          <mxGeometry x="120" y="637" width="60" height="30" as="geometry" />
        </mxCell>
        <mxCell id="5sABorG03hDOq8MKLAas-81" value="" style="endArrow=classic;html=1;rounded=0;fontFamily=Courier New;" edge="1" parent="1" target="5sABorG03hDOq8MKLAas-7">
          <mxGeometry width="50" height="50" relative="1" as="geometry">
            <mxPoint x="520" y="220" as="sourcePoint" />
            <mxPoint x="570" y="180" as="targetPoint" />
          </mxGeometry>
        </mxCell>
        <mxCell id="5sABorG03hDOq8MKLAas-82" value="" style="endArrow=classic;html=1;rounded=0;entryX=0;entryY=0.5;entryDx=0;entryDy=0;fontFamily=Courier New;" edge="1" parent="1" target="5sABorG03hDOq8MKLAas-9">
          <mxGeometry width="50" height="50" relative="1" as="geometry">
            <mxPoint x="540" y="220" as="sourcePoint" />
            <mxPoint x="590" y="172.5" as="targetPoint" />
          </mxGeometry>
        </mxCell>
        <mxCell id="5sABorG03hDOq8MKLAas-83" value="" style="endArrow=classic;html=1;rounded=0;fontFamily=Courier New;" edge="1" parent="1" target="5sABorG03hDOq8MKLAas-66">
          <mxGeometry width="50" height="50" relative="1" as="geometry">
            <mxPoint x="620" y="220" as="sourcePoint" />
            <mxPoint x="620" y="290" as="targetPoint" />
          </mxGeometry>
        </mxCell>
        <mxCell id="5sABorG03hDOq8MKLAas-85" value="" style="endArrow=none;html=1;rounded=0;exitX=1;exitY=0.75;exitDx=0;exitDy=0;fontFamily=Courier New;" edge="1" parent="1" source="5sABorG03hDOq8MKLAas-2">
          <mxGeometry width="50" height="50" relative="1" as="geometry">
            <mxPoint x="470" y="270" as="sourcePoint" />
            <mxPoint x="520" y="220" as="targetPoint" />
            <Array as="points">
              <mxPoint x="480" y="260" />
              <mxPoint x="480" y="220" />
            </Array>
          </mxGeometry>
        </mxCell>
        <mxCell id="5sABorG03hDOq8MKLAas-86" value="test_mode" style="text;html=1;align=center;verticalAlign=middle;whiteSpace=wrap;rounded=0;fontFamily=Courier New;" vertex="1" parent="1">
          <mxGeometry x="392" y="240" width="50" height="20" as="geometry" />
        </mxCell>
      </root>
    </mxGraphModel>
  </diagram>
</mxfile>
